<svg width="800" height="200" viewBox="0 0 800 200" fill="none" xmlns="http://www.w3.org/2000/svg">
  <rect width="800" height="200" rx="10" fill="#0D1117"/>
  <path d="M0 10C0 4.47715 4.47715 0 10 0H790C795.523 0 800 4.47715 800 10V190C800 195.523 795.523 200 790 200H10C4.47715 200 0 195.523 0 190V10Z" fill="url(#paint0_linear)"/>
  
  <!-- Abstract Grid -->
  <path d="M0 40H800" stroke="#161B22" stroke-width="1"/>
  <path d="M0 80H800" stroke="#161B22" stroke-width="1"/>
  <path d="M0 120H800" stroke="#161B22" stroke-width="1"/>
  <path d="M0 160H800" stroke="#161B22" stroke-width="1"/>
  <path d="M100 0V200" stroke="#161B22" stroke-width="1"/>
  <path d="M200 0V200" stroke="#161B22" stroke-width="1"/>
  <path d="M300 0V200" stroke="#161B22" stroke-width="1"/>
  <path d="M400 0V200" stroke="#161B22" stroke-width="1"/>
  <path d="M500 0V200" stroke="#161B22" stroke-width="1"/>
  <path d="M600 0V200" stroke="#161B22" stroke-width="1"/>
  <path d="M700 0V200" stroke="#161B22" stroke-width="1"/>

  <!-- Surgical/Tech Elements -->
  <circle cx="400" cy="100" r="60" stroke="#58A6FF" stroke-width="0.5" stroke-dasharray="4 4"/>
  <circle cx="400" cy="100" r="70" stroke="#58A6FF" stroke-width="0.2"/>
  <path d="M350 100H450" stroke="#58A6FF" stroke-width="1" stroke-opacity="0.5"/>
  <path d="M400 50V150" stroke="#58A6FF" stroke-width="1" stroke-opacity="0.5"/>

  <!-- Text -->
  <text x="50%" y="95" dominant-baseline="middle" text-anchor="middle" fill="#F0F6FC" font-family="Arial, sans-serif" font-size="42" font-weight="bold" letter-spacing="2">CIRÚRGICO</text>
  <text x="50%" y="130" dominant-baseline="middle" text-anchor="middle" fill="#8B949E" font-family="Arial, sans-serif" font-size="14" letter-spacing="4">ENGENHARIA DE SOFTWARE COM IA</text>

  <!-- Decorative Laser Lines -->
  <rect x="0" y="0" width="800" height="2" fill="#58A6FF" fill-opacity="0.3"/>
  <rect x="0" y="198" width="800" height="2" fill="#58A6FF" fill-opacity="0.3"/>

  <defs>
    <linearGradient id="paint0_linear" x1="400" y1="0" x2="400" y2="200" gradientUnits="userSpaceOnUse">
      <stop stop-color="#0D1117"/>
      <stop offset="1" stop-color="#161B22"/>
    </linearGradient>
  </defs>
</svg>
